HIERARCHY
ROOT Hips
{
	OFFSET 0.000000 0.000000 0.000000
	CHANNELS 6 Xposition Yposition Zposition Xrotation Yrotation Zrotation
	JOINT LeftUpLeg_virtual
	{
		OFFSET 0.000000 0.000000 0.000000
		CHANNELS 3 Xrotation Yrotation Zrotation
		JOINT LeftUpLeg
		{
			OFFSET 15.427100 -6.655098 0.678600
			CHANNELS 3 Xrotation Yrotation Zrotation
			JOINT LeftLeg
			{
				OFFSET 4.081073 -39.591068 13.024000
				CHANNELS 3 Xrotation Yrotation Zrotation
				JOINT LeftFoot
				{
					OFFSET -4.081074 -37.707932 -15.979700
					CHANNELS 3 Xrotation Yrotation Zrotation
					JOINT LeftToeBase
					{
						OFFSET 5.346399 -15.068900 20.645000
						CHANNELS 3 Xrotation Yrotation Zrotation
						JOINT LeftToe_End
						{
							OFFSET 2.754700 0.931300 11.300900
							CHANNELS 3 Xrotation Yrotation Zrotation
							End Site
							{
								OFFSET 0 0 0
							}
						}
					}
				}
			}
		}
	}
	JOINT RightUpLeg_virtual
	{
		OFFSET 0.000000 0.000000 0.000000
		CHANNELS 3 Xrotation Yrotation Zrotation
		JOINT RightUpLeg
		{
			OFFSET -15.569500 -6.655098 0.678600
			CHANNELS 3 Xrotation Yrotation Zrotation
			JOINT RightLeg
			{
				OFFSET -4.081825 -39.591045 13.023800
				CHANNELS 3 Xrotation Yrotation Zrotation
				JOINT RightFoot
				{
					OFFSET 4.081824 -37.707954 -15.979600
					CHANNELS 3 Xrotation Yrotation Zrotation
					JOINT RightToeBase
					{
						OFFSET -5.346400 -15.068900 20.645000
						CHANNELS 3 Xrotation Yrotation Zrotation
						JOINT RightToe_End
						{
							OFFSET -2.754700 0.931300 11.300900
							CHANNELS 3 Xrotation Yrotation Zrotation
							End Site
							{
								OFFSET 0 0 0
							}
						}
					}
				}
			}
		}
	}
	JOINT Spine_virtual
	{
		OFFSET 0.000000 0.000000 0.000000
		CHANNELS 3 Xrotation Yrotation Zrotation
		JOINT Spine
		{
			OFFSET -0.279200 12.230698 -2.892100
			CHANNELS 3 Xrotation Yrotation Zrotation
			JOINT Spine1
			{
				OFFSET -0.232667 10.192268 -1.242267
				CHANNELS 3 Xrotation Yrotation Zrotation
				JOINT Spine1_split
				{
					OFFSET -0.232667 10.192268 -1.242267
					CHANNELS 3 Xrotation Yrotation Zrotation
					JOINT Spine2
					{
						OFFSET -0.232667 10.192268 -1.242267
						CHANNELS 3 Xrotation Yrotation Zrotation
						JOINT Neck_virtual
						{
							OFFSET 0.000000 0.000000 0.000000
							CHANNELS 3 Xrotation Yrotation Zrotation
							JOINT Neck
							{
								OFFSET -0.418800 17.814194 8.416900
								CHANNELS 3 Xrotation Yrotation Zrotation
								JOINT Head
								{
									OFFSET 0.000000 7.031097 3.806800
									CHANNELS 3 Xrotation Yrotation Zrotation
									JOINT HeadTop_End
									{
										OFFSET 0.000000 24.646606 12.978600
										CHANNELS 3 Xrotation Yrotation Zrotation
										End Site
										{
											OFFSET 0 0 0
										}
									}
								}
							}
						}
						JOINT LeftShoulder_virtual
						{
							OFFSET 0.000000 0.000000 0.000000
							CHANNELS 3 Xrotation Yrotation Zrotation
							JOINT LeftShoulder
							{
								OFFSET 8.476499 7.247704 -3.868750
								CHANNELS 3 Xrotation Yrotation Zrotation
								JOINT LeftShoulder_split
								{
									OFFSET 8.476499 7.247704 -3.868750
									CHANNELS 3 Xrotation Yrotation Zrotation
									JOINT LeftArm
									{
										OFFSET 9.308998 -2.777710 0.208600
										CHANNELS 3 Xrotation Yrotation Zrotation
										JOINT LeftForeArm
										{
											OFFSET 29.972298 0.000000 0.000000
											CHANNELS 3 Xrotation Yrotation Zrotation
											JOINT LeftHand
											{
												OFFSET 26.026505 0.000000 0.000000
												CHANNELS 3 Xrotation Yrotation Zrotation
												End Site
												{
													OFFSET 0 0 0
												}
											}
										}
									}
								}
							}
						}
						JOINT RightShoulder_virtual
						{
							OFFSET 0.000000 0.000000 0.000000
							CHANNELS 3 Xrotation Yrotation Zrotation
							JOINT RightShoulder
							{
								OFFSET -7.570500 7.247704 -3.868750
								CHANNELS 3 Xrotation Yrotation Zrotation
								JOINT RightShoulder_split
								{
									OFFSET -7.570500 7.247704 -3.868750
									CHANNELS 3 Xrotation Yrotation Zrotation
									JOINT RightArm
									{
										OFFSET -9.308998 -2.777710 0.208500
										CHANNELS 3 Xrotation Yrotation Zrotation
										JOINT RightForeArm
										{
											OFFSET -29.972300 0.000000 0.000000
											CHANNELS 3 Xrotation Yrotation Zrotation
											JOINT RightHand
											{
												OFFSET -26.026505 0.000000 0.000000
												CHANNELS 3 Xrotation Yrotation Zrotation
												End Site
												{
													OFFSET 0 0 0
												}
											}
										}
									}
								}
							}
						}
					}
				}
			}
		}
	}
}
MOTION
Frames: 7
Frame Time: 0.03333333
2.676952 126.785179 4.428780 0.000000 0.000000 0.000000 8.399022 -7.332319 8.368147 -91.886357 -9.919480 16.643607 60.938784 -1.345104 -15.626062 14.757233 -15.563768 4.939801 2.652009 -1.160264 -1.156534 0.000000 0.000000 0.000000 6.781256 3.093242 7.658234 -92.717386 5.235512 0.762941 109.333379 -4.511292 -11.509846 38.221821 15.573026 12.361651 19.728482 -0.086654 -1.052296 0.000000 0.000000 0.000000 1.116980 -3.175237 10.714364 29.847128 -9.967805 -11.558073 0.620087 -3.671612 -1.959618 2.956361 -0.873070 0.734317 0.000000 0.000000 0.000000 3.130525 -2.017700 -1.084003 -22.392657 4.670350 5.887405 19.633118 2.428548 -18.632548 0.000000 0.000000 0.000000 2.741990 -2.250698 -0.948243 12.962238 -39.640447 32.475487 -4.212140 -0.556299 0.901586 -65.830217 14.715682 19.475823 -50.922141 -70.566386 -34.666813 0.000000 0.000000 0.000000 3.178577 -2.321623 -0.898052 1.253777 8.950694 -16.364691 6.025455 2.725014 -2.948755 -86.547103 -10.626900 -16.144457 -63.484136 67.514917 59.776060 0.000000 0.000000 0.000000 
1.318793 126.190125 9.808331 0.000000 0.000000 0.000000 6.583369 -7.724538 8.654343 -90.441014 -9.437851 17.879601 59.339577 -1.632772 -15.648868 15.997211 -13.910107 7.030573 0.742612 -0.874093 -1.081203 0.000000 0.000000 0.000000 5.620557 -0.104669 8.334146 -90.265765 4.343196 -1.967894 106.157648 -4.586582 -10.441999 37.275477 13.793213 13.538959 17.201574 -0.181525 -1.183503 0.000000 0.000000 0.000000 -0.254169 -3.565389 10.150983 29.634190 -9.774974 -11.333493 0.252740 -3.429441 -2.283676 2.006643 -2.293372 0.899663 0.000000 0.000000 0.000000 3.099822 -1.886340 -1.438841 -22.359347 3.714759 7.082667 19.062037 3.263140 -19.394551 0.000000 0.000000 0.000000 2.468100 -2.095928 -1.369871 10.938355 -38.535869 29.708458 -3.566826 -1.805245 1.600934 -64.010340 13.626828 18.112634 -59.045961 -71.804440 -42.848215 0.000000 0.000000 0.000000 3.011792 -2.136467 -1.315153 0.777098 9.001330 -16.572329 6.893721 1.673109 -0.995294 -85.397452 -10.865857 -13.648462 -64.442172 67.183674 60.825792 0.000000 0.000000 0.000000 
-0.093391 125.357162 17.570139 0.000000 0.000000 0.000000 4.592739 -10.004275 9.328578 -85.124101 -9.686075 18.895443 53.529644 -1.252122 -15.145543 20.568268 -10.928747 7.911679 -1.493677 -0.364171 -1.056534 0.000000 0.000000 0.000000 3.851914 -5.532109 9.307518 -82.716405 2.471856 -5.543069 97.536597 -4.591214 -9.475769 35.392360 9.603504 13.942755 17.675671 -0.195939 -0.333534 0.000000 0.000000 0.000000 -1.914544 -5.452996 9.747737 27.862966 -8.945225 -10.453502 0.358562 -3.079000 -3.272330 1.066179 -3.684956 1.464905 0.000000 0.000000 0.000000 3.692769 -1.788892 -2.454629 -21.879302 2.803687 9.539602 19.443243 4.797823 -20.094277 0.000000 0.000000 0.000000 2.852089 -1.963149 -2.455950 7.504699 -35.685720 24.716916 -2.758033 -2.698228 1.730302 -59.946644 10.403976 15.469885 -64.501062 -72.474926 -48.165951 0.000000 0.000000 0.000000 3.294798 -2.060438 -2.405258 0.426090 11.067689 -15.795270 6.788438 0.879639 0.252200 -82.691195 -12.105828 -11.485054 -68.588391 67.010672 64.901714 0.000000 0.000000 0.000000 
-1.133552 124.346313 26.514381 0.000000 0.000000 0.000000 2.263734 -13.602887 9.826393 -76.268426 -10.303261 19.833754 43.791655 0.213585 -14.226073 26.817092 -6.755478 7.599554 -2.555591 0.286762 -1.357666 0.000000 0.000000 0.000000 1.933717 -11.478842 10.027086 -70.550656 -0.577302 -8.904544 83.788219 -4.438329 -8.352007 33.743310 4.208054 13.400333 19.494460 -0.132499 0.938083 0.000000 0.000000 0.000000 -4.059387 -8.874384 9.354946 24.910380 -7.644524 -8.817465 1.039814 -2.668951 -4.686990 1.179264 -4.722772 1.811656 0.000000 0.000000 0.000000 4.599590 -1.743490 -3.844986 -20.861462 2.053457 12.536033 20.451699 6.711867 -20.677901 0.000000 0.000000 0.000000 3.792924 -1.833859 -4.001544 3.557466 -31.371380 18.417846 -1.476097 -2.691790 1.888559 -54.839449 5.331293 12.088017 -64.523042 -72.357781 -47.821300 0.000000 0.000000 0.000000 3.989160 -2.034362 -3.953421 0.164551 14.688291 -14.374792 6.178959 0.732257 1.013596 -79.459422 -14.609307 -10.558342 -75.342478 66.815991 71.455479 0.000000 0.000000 0.000000 
-1.891264 122.792038 36.380886 0.000000 0.000000 0.000000 -0.204788 -18.760394 9.996975 -65.009679 -11.132267 20.566449 32.188619 2.718412 -12.641639 32.336486 -2.254859 6.943663 -1.923573 0.888583 -2.091533 0.000000 0.000000 0.000000 0.061840 -17.107110 10.286753 -56.195928 -4.622115 -11.529111 66.907338 -3.638072 -7.071139 33.048939 0.117554 13.171286 19.206294 -0.028978 1.779642 0.000000 0.000000 0.000000 -5.944855 -13.565726 8.754154 21.324291 -6.080127 -6.380238 2.177902 -2.139364 -6.222775 1.318358 -4.770760 1.745808 0.000000 0.000000 0.000000 5.670242 -1.575942 -5.329903 -19.558242 1.681864 15.169565 21.493758 8.804189 -21.153900 0.000000 0.000000 0.000000 4.974018 -1.570710 -5.679027 -0.016990 -26.336002 12.006393 -0.453819 -2.046178 2.537380 -50.272347 -0.392699 8.956537 -60.575124 -71.376713 -43.194137 0.000000 0.000000 0.000000 4.979872 -1.874174 -5.667231 -0.115011 19.114288 -12.656865 5.625631 1.473673 1.843161 -76.916229 -18.202318 -11.184521 -82.779523 66.334886 78.668739 0.000000 0.000000 0.000000 
-2.425366 120.093971 46.512859 0.000000 0.000000 0.000000 -2.690117 -25.166133 9.686772 -53.292261 -12.708923 21.392002 21.425885 4.268274 -10.043100 37.486998 0.425938 4.932812 -1.314316 1.307626 -2.562794 0.000000 0.000000 0.000000 -1.733097 -22.728052 10.088914 -42.618625 -8.699196 -12.953590 50.415238 -2.318205 -5.419965 32.715780 -1.417767 13.901713 15.009472 -0.039948 1.633063 0.000000 0.000000 0.000000 -7.348785 -19.866217 7.971281 17.826553 -4.445001 -3.520523 3.555301 -1.272062 -7.624304 1.215380 -4.057963 1.848201 0.000000 0.000000 0.000000 6.795221 -1.106643 -6.651047 -18.192159 1.864390 16.793161 21.902584 10.840291 -21.575622 0.000000 0.000000 0.000000 6.070577 -0.970829 -7.193640 -2.783433 -21.262027 6.259183 -0.134844 -0.993124 3.364291 -47.557098 -5.186644 6.343826 -58.041356 -70.405720 -39.786511 0.000000 0.000000 0.000000 5.990002 -1.392769 -7.261610 -0.539131 23.479518 -10.918445 5.343578 2.730679 2.839852 -76.424838 -21.905641 -13.394476 -88.054532 65.566497 83.751349 0.000000 0.000000 0.000000 
-2.827195 115.712486 56.913025 0.000000 0.000000 0.000000 -4.416426 -31.596097 9.164283 -43.136067 -14.641764 22.685773 13.810420 3.820205 -7.399859 42.796411 -0.272717 1.267167 -2.469025 1.497726 -2.132852 0.000000 0.000000 0.000000 -3.151925 -28.071446 9.802613 -31.909671 -12.119645 -13.541284 37.181491 -0.788025 -3.464622 30.789752 -0.836502 15.265515 8.690721 -0.135818 0.214971 0.000000 0.000000 0.000000 -7.961938 -27.377066 7.297316 14.744703 -2.800307 -0.555714 4.817239 0.013846 -8.686152 0.906871 -2.788766 1.754465 0.000000 0.000000 0.000000 7.783114 -0.173133 -7.681658 -16.785963 2.557100 16.961530 21.296584 12.814054 -22.065239 0.000000 0.000000 0.000000 6.847536 0.176366 -8.315760 -4.710286 -16.699176 1.473018 0.136087 0.018252 3.575384 -46.617250 -7.426690 3.995928 -60.801873 -70.384649 -41.677220 0.000000 0.000000 0.000000 6.807159 -0.394073 -8.488771 -1.202013 27.045071 -9.287650 4.899632 3.803003 3.947237 -78.309376 -24.553362 -16.803015 -90.408523 64.894331 85.920098 0.000000 0.000000 0.000000 
